<svg id="b8152dbb-5c9e-44e8-a0b1-1de445f7b4ff" data-name="sooros-logo" xmlns="http://www.w3.org/2000/svg" viewBox="0 0 152 152"><defs><style>.f4ae8ac1-4bc1-4314-a53e-4351384d2e0e{fill:#9ed7e7;}.e6588b89-6225-4e6d-8dcb-4fd92a48c484{fill:#453b94;}.a83c1168-2043-42e8-9fa9-686861d33514{fill:#c2e5ea;}.a7820dab-2883-4d38-b43a-46bc09008cb3{fill:#3854a4;}.eb41a125-d494-4fc5-9f01-373b95c6ff69{fill:#ed7870;}.b4a4716a-3e5d-4efb-9911-f3b442fcea13{fill:#e7231d;}.f25b308f-a4c2-49b9-a0ef-424e5b2edb77{fill:#f19590;}.be6cfd82-3a70-4771-8b57-a56ff1f03d7c{fill:#e56953;}</style></defs><polygon class="f4ae8ac1-4bc1-4314-a53e-4351384d2e0e" points="62.23 18.52 34.64 18.52 15.11 52.35 42.7 52.35 62.23 18.52"/><polygon class="f4ae8ac1-4bc1-4314-a53e-4351384d2e0e" points="62.36 133.98 42.7 100.15 15.11 100.15 15.11 100.15 34.64 133.98 62.36 133.98"/><polygon class="e6588b89-6225-4e6d-8dcb-4fd92a48c484" points="1.31 76.25 15.11 100.15 42.7 100.15 28.86 76.33 42.7 52.35 15.11 52.35 1.31 76.25"/><polygon class="a83c1168-2043-42e8-9fa9-686861d33514" points="23.16 100.15 42.69 133.98 70.29 133.98 50.76 100.15 23.16 100.15"/><polygon class="a83c1168-2043-42e8-9fa9-686861d33514" points="50.76 52.35 70.29 18.52 42.69 18.52 23.16 52.35 50.76 52.35"/><polygon class="a7820dab-2883-4d38-b43a-46bc09008cb3" points="9.41 76.18 23.16 100.15 50.76 100.15 37 76.18 50.76 52.35 23.16 52.35 9.41 76.18"/><polygon class="eb41a125-d494-4fc5-9f01-373b95c6ff69" points="109.35 18.52 81.76 18.52 62.23 52.35 89.82 52.35 109.35 18.52"/><polygon class="eb41a125-d494-4fc5-9f01-373b95c6ff69" points="109.47 133.98 89.82 100.15 62.23 100.15 62.23 100.15 81.76 133.98 109.47 133.98"/><polygon class="b4a4716a-3e5d-4efb-9911-f3b442fcea13" points="48.43 76.25 62.23 100.15 89.82 100.15 75.98 76.33 89.82 52.35 62.23 52.35 48.43 76.25"/><polygon class="f25b308f-a4c2-49b9-a0ef-424e5b2edb77" points="70.28 100.15 89.81 133.98 117.4 133.98 97.87 100.15 70.28 100.15"/><polygon class="f25b308f-a4c2-49b9-a0ef-424e5b2edb77" points="97.87 52.35 117.4 18.52 89.81 18.52 70.28 52.35 97.87 52.35"/><polygon class="be6cfd82-3a70-4771-8b57-a56ff1f03d7c" points="56.52 76.18 70.28 100.15 97.87 100.15 84.12 76.18 97.87 52.35 70.28 52.35 56.52 76.18"/><polygon class="f4ae8ac1-4bc1-4314-a53e-4351384d2e0e" points="54.17 100.15 34.64 133.98 62.23 133.98 81.77 100.15 54.17 100.15"/><polygon class="f4ae8ac1-4bc1-4314-a53e-4351384d2e0e" points="81.77 52.35 62.23 18.52 34.64 18.52 54.17 52.35 81.77 52.35"/><polygon class="e6588b89-6225-4e6d-8dcb-4fd92a48c484" points="95.56 76.25 81.77 52.35 54.17 52.35 67.92 76.33 54.17 100.15 81.77 100.15 95.56 76.25"/><polygon class="a83c1168-2043-42e8-9fa9-686861d33514" points="62.23 100.15 42.69 133.98 70.29 133.98 89.82 100.15 62.23 100.15"/><polygon class="a83c1168-2043-42e8-9fa9-686861d33514" points="89.82 52.35 70.29 18.52 42.69 18.52 62.23 52.35 89.82 52.35"/><polygon class="a7820dab-2883-4d38-b43a-46bc09008cb3" points="103.57 76.33 89.82 52.35 62.23 52.35 75.98 76.33 62.23 100.15 89.82 100.15 103.57 76.33"/><polygon class="f4ae8ac1-4bc1-4314-a53e-4351384d2e0e" points="101.29 100.15 81.76 133.98 109.35 133.98 128.88 100.15 101.29 100.15"/><polygon class="f4ae8ac1-4bc1-4314-a53e-4351384d2e0e" points="128.88 52.35 109.35 18.52 81.76 18.52 101.29 52.35 128.88 52.35"/><polygon class="e6588b89-6225-4e6d-8dcb-4fd92a48c484" points="142.68 76.25 128.88 52.35 101.29 52.35 115.04 76.33 101.29 100.15 128.88 100.15 142.68 76.25"/><polygon class="a83c1168-2043-42e8-9fa9-686861d33514" points="109.34 100.15 89.81 133.98 117.4 133.98 136.94 100.15 109.34 100.15"/><polygon class="a83c1168-2043-42e8-9fa9-686861d33514" points="136.94 52.35 117.4 18.52 89.81 18.52 109.34 52.35 136.94 52.35"/><polygon class="a7820dab-2883-4d38-b43a-46bc09008cb3" points="150.69 76.33 136.94 52.35 109.34 52.35 123.09 76.33 109.34 100.15 136.94 100.15 150.69 76.33"/></svg>